<svg xmlns="http://www.w3.org/2000/svg" version="1.1" xmlns:xlink="http://www.w3.org/1999/xlink" xmlns:svgjs="http://svgjs.dev/svgjs" width="1000" height="623" viewBox="0 0 1000 623"><g transform="matrix(1,0,0,1,-0.6060347232078129,0.2522267206477409)"><svg viewBox="0 0 396 247" data-background-color="#77d4fc" preserveAspectRatio="xMidYMid meet" height="623" width="1000" xmlns="http://www.w3.org/2000/svg" xmlns:xlink="http://www.w3.org/1999/xlink"><g id="tight-bounds" transform="matrix(1,0,0,1,0.23998975039029347,-0.09999999999999432)"><svg viewBox="0 0 395.52 247.2" height="247.2" width="395.52"><g><svg></svg></g><g><svg viewBox="0 0 395.52 247.2" height="247.2" width="395.52"><g><g><path xmlns="http://www.w3.org/2000/svg" d="M281.199 227.028v20.172h-166.878v-20.172l31.978-48.745h25.674l-31.979 48.745zM250.024 20.172h-134.236v-20.172h159.91v20.172l-31.979 48.745-25.673 0z" fill="#000000" fill-rule="nonzero" stroke="none" stroke-width="1" stroke-linecap="butt" stroke-linejoin="miter" stroke-miterlimit="10" stroke-dasharray="" stroke-dashoffset="0" font-family="none" font-weight="none" font-size="none" text-anchor="none" style="mix-blend-mode: normal" data-fill-palette-color="tertiary"></path></g></g><g transform="matrix(1,0,0,1,0,76.6804657782169)"><svg viewBox="0 0 395.52 93.83906844356619" height="93.83906844356619" width="395.52"><g><svg viewBox="0 0 395.52 93.83906844356619" height="93.83906844356619" width="395.52"><g><svg viewBox="0 0 395.52 93.83906844356619" height="93.83906844356619" width="395.52"><g><svg viewBox="0 0 395.52 93.83906844356619" height="93.83906844356619" width="395.52"><g id="textblocktransform"><svg viewBox="0 0 395.52 93.83906844356619" height="93.83906844356619" width="395.52" id="textblock"><g><svg viewBox="0 0 395.52 53.19904284060208" height="53.19904284060208" width="395.52"><g transform="matrix(1,0,0,1,0,0)"><svg width="395.52" viewBox="2.5 -34.400001525878906 259.0799865722656 34.85000228881836" height="53.19904284060208" data-palette-color="#000000"><path d="M25.25-2.75L25.25 0 2.5 0 2.5-2.75 21-30.95 2.7-30.95 2.7-33.7 24.5-33.7 24.5-30.95 6-2.75 25.25-2.75ZM49.7-4.35L49.7-1.25Q46.7 0.25 42.7 0.25L42.7 0.25Q37.05 0.25 33.52-3.28 30-6.8 30-12.55L30-12.55Q30-18.65 33.1-22.15 36.2-25.65 41.15-25.65L41.15-25.65Q45.8-25.65 48.55-22.6 51.3-19.55 51.3-14L51.3-14Q51.3-12.3 51.1-11.3L51.1-11.3 33.2-11.3Q33.55-7.1 36.1-4.88 38.65-2.65 42.85-2.65L42.85-2.65Q47.15-2.65 49.7-4.35L49.7-4.35ZM41.05-22.8L41.05-22.8Q37.85-22.8 35.7-20.55 33.55-18.3 33.2-14.1L33.2-14.1 48.15-14.1 48.15-15.25Q48.15-18.7 46.22-20.75 44.3-22.8 41.05-22.8ZM60.55-14.15L60.55 0 57.5 0 57.5-25.35 60.55-25.35 60.55-21.05Q62.65-25.65 67.65-25.65L67.65-25.65Q68-25.65 68.9-25.55L68.9-25.55 68.9-22.45Q67.9-22.75 66.9-22.75L66.9-22.75Q64.2-22.75 62.37-20.08 60.55-17.4 60.55-14.15L60.55-14.15ZM95.19-12.55L95.19-12.55Q95.19-6.9 92.02-3.23 88.84 0.45 83.29 0.45L83.29 0.45Q77.94 0.45 74.79-3.25 71.64-6.95 71.64-12.55L71.64-12.55Q71.64-18.1 74.89-21.9 78.14-25.7 83.29-25.7L83.29-25.7Q88.94-25.7 92.07-21.98 95.19-18.25 95.19-12.55ZM74.84-12.55L74.84-12.55Q74.84-8.4 77.17-5.43 79.49-2.45 83.29-2.45L83.29-2.45Q87.44-2.45 89.72-5.38 91.99-8.3 91.99-12.55L91.99-12.55Q91.99-16.95 89.84-19.88 87.69-22.8 83.29-22.8L83.29-22.8Q79.34-22.8 77.09-19.8 74.84-16.8 74.84-12.55ZM104.54-14.25L104.54 0 101.44 0 101.44-33.7 105.69-33.7 114.29-19.45 123.79-3.65Q123.69-8.85 123.69-19.4L123.69-19.4 123.69-33.7 126.79-33.7 126.79 0 122.54 0 113.99-14.15 104.44-30.05Q104.54-24.65 104.54-14.25L104.54-14.25ZM156.59-12.55L156.59-12.55Q156.59-6.9 153.41-3.23 150.24 0.45 144.69 0.45L144.69 0.45Q139.34 0.45 136.19-3.25 133.04-6.95 133.04-12.55L133.04-12.55Q133.04-18.1 136.29-21.9 139.54-25.7 144.69-25.7L144.69-25.7Q150.34-25.7 153.46-21.98 156.59-18.25 156.59-12.55ZM136.24-12.55L136.24-12.55Q136.24-8.4 138.56-5.43 140.89-2.45 144.69-2.45L144.69-2.45Q148.84-2.45 151.11-5.38 153.39-8.3 153.39-12.55L153.39-12.55Q153.39-16.95 151.24-19.88 149.09-22.8 144.69-22.8L144.69-22.8Q140.74-22.8 138.49-19.8 136.24-16.8 136.24-12.55ZM174.79-3.8L174.79-0.7Q173.34 0.25 171.44 0.25L171.44 0.25Q164.24 0.25 164.24-7.15L164.24-7.15 164.24-22.75 160.09-22.75 160.09-25.35 164.24-25.35 164.24-31.7 167.34-31.7 167.34-25.35 174.59-25.35 174.59-22.75 167.34-22.75 167.34-7Q167.34-2.65 171.39-2.65L171.39-2.65Q173.39-2.65 174.79-3.8L174.79-3.8ZM209.08-17L209.08-17Q209.08-9 205.13-4.3 201.18 0.4 194.38 0.4L194.38 0.4Q187.68 0.4 183.61-4.35 179.53-9.1 179.53-17L179.53-17Q179.53-24.95 183.51-29.68 187.48-34.4 194.28-34.4L194.28-34.4Q201.28-34.4 205.18-29.73 209.08-25.05 209.08-17ZM182.73-17L182.73-17Q182.73-10.35 185.91-6.48 189.08-2.6 194.38-2.6L194.38-2.6Q199.88-2.6 202.88-6.43 205.88-10.25 205.88-17L205.88-17Q205.88-23.8 202.86-27.6 199.83-31.4 194.28-31.4L194.28-31.4Q188.88-31.4 185.81-27.58 182.73-23.75 182.73-17ZM234.53-17.7L234.53 0 231.48 0 231.48-16.75Q231.48-19.7 229.98-21.25 228.48-22.8 226.03-22.8L226.03-22.8Q222.93-22.8 220.68-20.43 218.43-18.05 218.43-14L218.43-14 218.43 0 215.38 0 215.38-25.35 218.43-25.35 218.43-21Q220.78-25.75 226.48-25.75L226.48-25.75Q230.13-25.75 232.33-23.5 234.53-21.25 234.53-17.7L234.53-17.7ZM259.98-4.35L259.98-1.25Q256.98 0.25 252.98 0.25L252.98 0.25Q247.33 0.25 243.8-3.28 240.28-6.8 240.28-12.55L240.28-12.55Q240.28-18.65 243.38-22.15 246.48-25.65 251.43-25.65L251.43-25.65Q256.08-25.65 258.83-22.6 261.58-19.55 261.58-14L261.58-14Q261.58-12.3 261.38-11.3L261.38-11.3 243.48-11.3Q243.83-7.1 246.38-4.88 248.93-2.65 253.13-2.65L253.13-2.65Q257.43-2.65 259.98-4.35L259.98-4.35ZM251.33-22.8L251.33-22.8Q248.13-22.8 245.98-20.55 243.83-18.3 243.48-14.1L243.48-14.1 258.43-14.1 258.43-15.25Q258.43-18.7 256.5-20.75 254.58-22.8 251.33-22.8Z" opacity="1" transform="matrix(1,0,0,1,0,0)" fill="#000000" class="undefined-text-0" data-fill-palette-color="primary" id="text-0"></path></svg></g></svg></g><g transform="matrix(1,0,0,1,165.240350312285,60.9620599680741)"><svg viewBox="0 0 65.03929937543 32.87700847549209" height="32.87700847549209" width="65.03929937543"><g transform="matrix(1,0,0,1,0,0)"><svg width="65.03929937543" viewBox="0.49000000953674316 -37.349998474121094 75.52999877929688 38.18000030517578" height="32.87700847549209" data-palette-color="#000000"><path d="M25.49-18.75L25.49-18.75Q25.1-18.85 24.95-18.6L24.95-18.6Q25.15-18.12 25.37-17.65 25.59-17.19 25.73-16.75L25.73-16.75Q25.49-16.06 25.15-15.41 24.8-14.75 24.27-14.26L24.27-14.26Q24.12-14.01 23.9-13.7 23.68-13.38 23.58-13.09L23.58-13.09Q23.39-12.35 23.1-11.94 22.8-11.52 22.56-11.18L22.56-11.18Q22.36-10.94 21.97-10.28 21.58-9.62 21.17-8.84 20.75-8.06 20.39-7.35 20.02-6.64 19.87-6.3L19.87-6.3Q19.53-6.1 19.38-5.81 19.24-5.52 19.04-5.18L19.04-5.18Q18.95-4.49 18.51-4.1 18.07-3.71 17.82-3.08L17.82-3.08Q17.87-2.78 17.94-2.51 18.02-2.25 18.07-1.95L18.07-1.95Q17.68-1.81 17.5-1.64 17.33-1.46 16.94-1.51L16.94-1.51Q16.5-0.93 16.24-0.24 15.97 0.44 15.28 0.83L15.28 0.83Q15.04 0.78 14.92 0.66 14.79 0.54 14.6 0.44L14.6 0.44Q14.31 0.54 13.99 0.61 13.67 0.68 13.33 0.68L13.33 0.68Q13.13 0.68 12.99 0.49 12.84 0.29 12.74 0.2L12.74 0.2Q12.4 0.05 12.26-0.05 12.11-0.15 11.91-0.24L11.91-0.24Q11.82-0.54 11.52-0.78L11.52-0.78Q10.99-0.83 10.74-1.17 10.5-1.51 10.4-1.95L10.4-1.95Q10.64-2.39 10.69-2.78L10.69-2.78Q10.3-3.61 9.79-4.3 9.28-4.98 8.74-5.71L8.74-5.71Q8.4-6.15 8.11-6.62 7.81-7.08 7.47-7.62L7.47-7.62Q7.23-7.86 7.06-8.03 6.88-8.2 6.74-8.45L6.74-8.45Q5.81-9.81 5-11.28 4.2-12.74 3.08-14.01L3.08-14.01Q2.69-14.5 2.32-14.94 1.95-15.38 1.56-15.87L1.56-15.87Q1.42-15.92 1.27-15.99 1.12-16.06 0.93-16.16L0.93-16.16Q0.78-16.41 0.66-16.63 0.54-16.85 0.49-17.14L0.49-17.14Q0.63-17.38 0.78-17.7 0.93-18.02 1.07-18.31L1.07-18.31Q1.17-18.55 1.27-18.8 1.37-19.04 1.46-19.29L1.46-19.29Q1.76-19.97 2.1-20.61 2.44-21.24 2.83-21.83L2.83-21.83Q3.42-22.66 3.93-23.49 4.44-24.32 5.03-25.1L5.03-25.1Q5.13-25.54 5.47-25.93 5.81-26.32 5.96-26.76L5.96-26.76Q6.45-27.39 6.84-28.08 7.23-28.76 7.62-29.44L7.62-29.44Q7.91-29.74 8.08-30.1 8.25-30.47 8.54-30.76L8.54-30.76Q8.69-31.15 8.91-31.45 9.13-31.74 9.23-32.18L9.23-32.18Q9.52-32.47 9.81-32.91 10.11-33.35 10.4-33.84 10.69-34.33 10.94-34.79 11.18-35.25 11.38-35.6L11.38-35.6Q11.77-35.74 11.94-36.11 12.11-36.47 12.5-36.67L12.5-36.67Q12.55-36.87 12.65-36.99 12.74-37.11 12.79-37.3L12.79-37.3Q13.38-37.11 13.82-37.11L13.82-37.11Q14.01-37.01 14.09-36.84 14.16-36.67 14.4-36.62L14.4-36.62Q14.65-36.72 14.72-36.94 14.79-37.16 14.99-37.35L14.99-37.35Q15.23-37.35 15.41-37.23 15.58-37.11 15.82-37.01L15.82-37.01Q16.21-36.47 16.53-35.91 16.85-35.35 17.14-34.81L17.14-34.81Q17.29-34.62 17.38-34.38 17.48-34.13 17.58-33.94L17.58-33.94Q17.97-33.4 18.33-32.84 18.7-32.28 19.04-31.74L19.04-31.74Q19.58-31.05 20.07-30.3 20.56-29.54 21-28.76L21-28.76Q21.58-27.69 22.07-26.73 22.56-25.78 23.24-24.66L23.24-24.66Q23.54-24.17 23.88-23.71 24.22-23.24 24.56-22.8L24.56-22.8Q24.9-22.31 25.17-21.83 25.44-21.34 25.78-20.9L25.78-20.9Q25.83-20.56 26-20.24 26.17-19.92 26.17-19.53L26.17-19.53Q26.17-19.29 25.93-19.07 25.68-18.85 25.49-18.75ZM19.24-17.48L19.24-17.48Q20.02-18.31 20.36-19.34L20.36-19.34Q20.21-19.58 20.04-19.8 19.87-20.02 19.63-20.26L19.63-20.26Q19.24-20.75 18.6-21.68 17.97-22.61 17.63-23.14L17.63-23.14 17.19-24.17Q16.94-24.71 16.67-25.17 16.41-25.63 16.16-26.17L16.16-26.17Q16.06-26.42 15.97-26.66 15.87-26.9 15.72-27.15L15.72-27.15Q15.53-27.39 15.33-27.59 15.14-27.78 15.04-28.17L15.04-28.17Q14.89-28.32 14.77-28.47 14.65-28.61 14.55-28.86L14.55-28.86Q13.48-27.39 12.72-26.1 11.96-24.8 11.13-23.49L11.13-23.49Q10.74-22.9 10.35-22.31 9.96-21.73 9.62-21.04L9.62-21.04Q9.42-20.65 9.08-20.19 8.74-19.73 8.4-19.21 8.06-18.7 7.76-18.21 7.47-17.72 7.42-17.53L7.42-17.53Q8.06-16.41 8.64-15.67 9.23-14.94 9.77-14.11L9.77-14.11Q10.21-13.18 10.69-12.4L10.69-12.4Q10.94-12.01 11.25-11.62 11.57-11.23 11.82-10.79L11.82-10.79Q12.4-10.16 12.82-9.42 13.23-8.69 13.92-8.11L13.92-8.11Q14.45-8.84 14.89-9.64 15.33-10.45 15.82-11.28L15.82-11.28Q16.31-12.11 16.75-12.89 17.19-13.67 17.53-14.6L17.53-14.6Q17.72-14.7 17.82-14.79 17.92-14.89 18.02-14.99L18.02-14.99Q18.26-15.67 18.63-16.24 18.99-16.8 19.24-17.48ZM16.21-20.7L16.21-20.7Q16.5-20.17 16.87-19.65 17.24-19.14 17.63-18.65L17.63-18.65Q17.77-18.55 17.97-18.43 18.16-18.31 18.16-18.07L18.16-18.07Q18.16-17.87 17.92-17.63 17.68-17.38 17.63-17.09L17.63-17.09Q17.38-16.94 17.24-16.75 17.09-16.55 16.89-16.31L16.89-16.31Q16.6-16.41 16.41-16.31 16.21-16.21 15.97-16.21L15.97-16.21Q15.43-15.92 15.31-15.8 15.19-15.67 15.06-15.53 14.94-15.38 14.77-15.23 14.6-15.09 14.21-14.99L14.21-14.99Q13.77-14.6 13.67-14.55L13.67-14.55Q13.48-14.55 13.35-14.62 13.23-14.7 13.09-14.75L13.09-14.75Q12.89-14.89 12.43-15.45 11.96-16.02 11.47-16.67 10.99-17.33 10.62-17.92 10.25-18.51 10.25-18.75L10.25-18.75Q10.55-19.24 10.64-19.36 10.74-19.48 10.99-19.48L10.99-19.48Q11.38-19.63 11.52-19.82 11.67-20.02 11.79-20.19 11.91-20.36 12.11-20.48 12.3-20.61 12.7-20.75L12.7-20.75Q13.09-21.29 13.23-21.39 13.38-21.48 13.62-21.48L13.62-21.48Q13.87-21.68 13.89-22 13.92-22.31 14.31-22.27L14.31-22.27Q15.04-21.88 15.53-21.39L15.53-21.39Q15.77-21.19 15.87-21 15.97-20.8 16.21-20.7ZM37.45-18.8L36.47-18.8Q35.89-18.8 35.25-18.73 34.62-18.65 34.08-18.6L34.08-18.6Q33.1-18.51 32.2-18.43 31.3-18.36 30.37-18.36L30.37-18.36Q29.25-18.36 28.42-18.55L28.42-18.55Q28.42-18.99 28.51-19.24L28.51-19.24Q28.37-19.63 28.34-20 28.32-20.36 28.17-20.7L28.17-20.7Q28.27-21.04 28.32-21.34 28.37-21.63 28.46-22.02L28.46-22.02Q28.17-22.41 28.17-22.66L28.17-22.66Q28.66-23 28.85-23.1L28.85-23.1Q29.2-23.14 29.51-23.14 29.83-23.14 30.17-23.14L30.17-23.14Q31-23.19 31.78-23.24 32.57-23.29 33.35-23.39L33.35-23.39Q34.03-23.44 34.62-23.46 35.2-23.49 35.79-23.58L35.79-23.58Q36.47-23.63 36.67-23.66 36.86-23.68 37.11-23.68L37.11-23.68 37.64-23.68Q38.08-23.68 38.5-23.75 38.91-23.83 39.3-23.83L39.3-23.83Q41.4-23.83 43.55-23.68 45.7-23.54 47.8-23.44L47.8-23.44Q48.63-23.1 48.58-22.83 48.53-22.56 48.78-22.36L48.78-22.36Q48.53-21.53 48.61-20.51 48.68-19.48 48.34-18.8L48.34-18.8Q47.56-18.65 47.24-18.7 46.92-18.75 46.58-18.75L46.58-18.75Q45.55-18.75 44.43-18.75 43.31-18.75 42.33-18.9L42.33-18.9Q41.4-18.85 40.96-18.87 40.52-18.9 39.99-18.9L39.99-18.9Q39.35-18.9 38.74-18.85 38.13-18.8 37.45-18.8L37.45-18.8ZM48.19-14.36L48.19-14.36Q48.14-14.11 48.12-13.96 48.09-13.82 47.95-13.62L47.95-13.62Q48.04-13.28 47.97-13.01 47.9-12.74 47.9-12.45L47.9-12.45Q47.9-12.21 48-11.91L48-11.91Q47.9-11.77 47.82-11.62 47.75-11.47 47.75-11.28L47.75-11.28Q47.8-10.89 47.65-10.74L47.65-10.74Q46.04-10.79 44.43-10.77 42.82-10.74 41.16-10.84L41.16-10.84Q40.77-10.84 40.35-10.89 39.94-10.94 39.55-10.94L39.55-10.94Q39.16-10.94 38.84-10.86 38.52-10.79 38.18-10.79L38.18-10.79Q37.74-10.79 37.35-10.86 36.96-10.94 36.57-10.94L36.57-10.94Q35.94-10.94 35.32-10.89 34.71-10.84 34.13-10.84L34.13-10.84Q33.3-10.84 32.52-10.79 31.74-10.74 30.91-10.74L30.91-10.74Q30.61-10.74 30.3-10.79 29.98-10.84 29.64-10.84L29.64-10.84Q29.44-10.84 29.22-10.84 29-10.84 28.85-10.89L28.85-10.89Q28.81-11.23 28.85-11.4 28.9-11.57 28.95-11.67L28.95-11.67Q28.85-11.91 28.78-12.18 28.71-12.45 28.61-12.7L28.61-12.7Q28.71-13.04 28.68-13.38 28.66-13.72 28.85-14.06L28.85-14.06Q28.66-14.7 28.66-14.87 28.66-15.04 28.71-15.23L28.71-15.23Q28.95-15.33 29.15-15.38 29.34-15.43 29.54-15.53L29.54-15.53Q30.32-15.63 31.05-15.67 31.78-15.72 32.61-15.77L32.61-15.77Q33.15-15.82 33.76-15.87 34.37-15.92 34.96-15.92L34.96-15.92Q35.45-15.92 35.96-15.84 36.47-15.77 36.96-15.77L36.96-15.77Q37.5-15.77 38.08-15.8 38.67-15.82 39.21-15.82L39.21-15.82Q40.28-15.82 41.28-15.77 42.28-15.72 43.36-15.72L43.36-15.72Q44.48-15.72 45.51-15.7 46.53-15.67 47.65-15.58L47.65-15.58Q47.8-15.43 47.92-15.28 48.04-15.14 48.04-14.89L48.04-14.89Q48.04-14.7 48.04-14.6 48.04-14.5 48.19-14.36ZM53.46-22.8L53.46-22.8Q53.46-23.34 53.39-23.85 53.32-24.37 53.32-24.9L53.32-24.9Q53.32-27.64 53.46-30.32 53.61-33.01 53.66-35.74L53.66-35.74Q54.05-36.08 54.17-36.08 54.29-36.08 54.39-36.18L54.39-36.18Q54.49-36.08 54.68-36.01 54.88-35.94 54.98-35.94L54.98-35.94Q55.22-35.94 55.27-36.11 55.32-36.28 55.71-36.28L55.71-36.28Q55.85-36.28 56-36.21 56.15-36.13 56.25-36.04L56.25-36.04Q56.59-36.13 56.68-36.08 56.78-36.04 56.83-36.23L56.83-36.23Q57.42-36.13 57.54-35.96 57.66-35.79 57.76-35.79L57.76-35.79Q58.2-35.99 58.27-35.94 58.34-35.89 58.44-35.89L58.44-35.89Q58.74-35.84 58.88-35.84 59.03-35.84 59.13-35.74L59.13-35.74Q59.22-35.55 59.22-35.08 59.22-34.62 59.32-34.33L59.32-34.33Q59.22-33.79 59.25-33.23 59.27-32.67 59.22-32.08L59.22-32.08Q59.22-31.84 59.17-31.62 59.13-31.4 59.13-31.2L59.13-31.2Q59.13-30.08 59.1-29.03 59.08-27.98 59.08-26.86L59.08-26.86Q59.08-26.42 59.13-25.95 59.17-25.49 59.17-25.05L59.17-25.05Q59.17-24.46 59.15-23.83 59.13-23.19 59.22-22.61L59.22-22.61Q59.22-22.07 59.2-21.97 59.17-21.88 59.17-21.73L59.17-21.73Q59.17-21.48 59.2-21.24 59.22-21 59.22-20.75L59.22-20.75Q59.22-20.56 59.2-20.36 59.17-20.17 59.17-19.92L59.17-19.92Q59.17-19.53 59.25-19.24 59.32-18.95 59.32-18.6L59.32-18.6Q59.32-18.41 59.27-18.24 59.22-18.07 59.17-17.92L59.17-17.92Q59.13-17.63 59.13-17.33 59.13-17.04 59.13-16.8L59.13-16.8Q59.13-15.97 59.1-15.11 59.08-14.26 59.08-13.43L59.08-13.43Q59.08-12.99 59.1-12.45 59.13-11.91 58.83-11.52L58.83-11.52Q58.59-11.52 58.44-11.62 58.3-11.72 58.15-11.72L58.15-11.72Q57.91-11.72 57.78-11.47 57.66-11.23 57.42-11.23L57.42-11.23Q57.08-11.38 56.88-11.23 56.68-11.08 56.59-10.99L56.59-10.99Q56.2-11.13 55.85-11.21 55.51-11.28 55.12-11.43L55.12-11.43Q54.88-11.43 54.83-11.23 54.78-11.04 54.63-10.99L54.63-10.99Q54.39-10.94 54.15-10.91 53.9-10.89 53.66-10.84L53.66-10.84Q53.32-12.5 53.36-14.18 53.41-15.87 53.41-17.58L53.41-17.58 53.41-19.34Q53.41-20.07 53.41-20.29 53.41-20.51 53.41-20.75L53.41-20.75Q53.41-21.29 53.44-21.78 53.46-22.27 53.46-22.8ZM60.64-2.44L60.64-2.44Q60.64-1.95 60.69-1.71L60.69-1.71Q60.59-1.46 60.37-1.34 60.15-1.22 59.91-1.07L59.91-1.07Q59.47-1.12 59.35-0.95 59.22-0.78 59.22-0.59L59.22-0.59Q58.64-0.49 58.54-0.59 58.44-0.68 58.34-0.68L58.34-0.68Q58.15-0.68 57.95-0.49 57.76-0.29 57.61-0.2L57.61-0.2Q57.42-0.2 57.25-0.17 57.08-0.15 56.93-0.24L56.93-0.24Q56.54 0.15 56.32 0.24 56.1 0.34 55.85 0.39L55.85 0.39Q55.61 0.15 55.27-0.42 54.93-0.98 54.73-1.12L54.73-1.12Q54.34-1.95 54-2.83 53.66-3.71 53.22-4.54L53.22-4.54Q53.27-4.93 53.56-5.1 53.85-5.27 54.19-5.27L54.19-5.27Q54.49-5.37 54.58-5.62 54.68-5.86 54.93-5.86L54.93-5.86Q55.27-6.1 55.71-6.15 56.15-6.2 56.39-6.49L56.39-6.49Q56.98-6.35 57.32-6.49 57.66-6.64 57.81-6.74L57.81-6.74 58.44-6.69Q58.59-6.45 58.95-5.83 59.32-5.22 59.69-4.57 60.05-3.91 60.35-3.32 60.64-2.73 60.64-2.44ZM70.89-36.38L70.89-36.38Q70.84-35.79 70.94-35.5L70.94-35.5Q71.48-35.69 71.53-35.64L71.53-35.64Q71.77-35.79 71.87-36.04 71.97-36.28 72.16-36.52L72.16-36.52Q72.36-36.52 72.5-36.45 72.65-36.38 72.75-36.33L72.75-36.33Q73.53-36.57 73.72-36.18L73.72-36.18Q74.26-36.43 74.55-36.3 74.85-36.18 75.09-36.13L75.09-36.13Q75.24-36.04 75.33-35.94 75.43-35.84 75.63-35.79L75.63-35.79Q75.82-33.69 75.87-31.59 75.92-29.49 75.92-27.34L75.92-27.34Q75.92-25.98 75.85-24.63 75.77-23.29 75.77-21.97L75.77-21.97Q75.77-21.44 75.82-20.97 75.87-20.51 75.87-20.02L75.87-20.02Q75.87-19.63 75.85-19.29 75.82-18.95 75.82-18.6L75.82-18.6Q75.82-17.68 75.85-16.8 75.87-15.92 75.87-14.99L75.87-14.99 75.87-13.67Q75.87-13.28 75.9-12.96 75.92-12.65 75.92-12.3L75.92-12.3Q75.92-11.72 75.9-11.11 75.87-10.5 75.87-9.86L75.87-9.86Q75.87-9.28 75.94-8.74 76.02-8.2 76.02-7.67L76.02-7.67Q76.02-6.1 75.97-4.61 75.92-3.13 75.97-1.61L75.97-1.61Q75.87-1.46 75.75-1.34 75.63-1.22 75.58-1.12L75.58-1.12Q75.48-0.88 75.43-0.63 75.38-0.39 75.14-0.2L75.14-0.2Q74.8-0.2 74.72-0.34 74.65-0.49 74.46-0.59L74.46-0.59Q73.97-0.49 73.5-0.42 73.04-0.34 72.5-0.2L72.5-0.2Q72.36-0.29 72.18-0.37 72.01-0.44 71.82-0.44L71.82-0.44Q71.43-0.49 71.43-0.68 71.43-0.88 71.28-0.93L71.28-0.93Q71.04-0.88 70.89-0.71 70.74-0.54 70.35-0.54L70.35-0.54Q70.21-0.54 70.01-0.76 69.82-0.98 69.72-1.17L69.72-1.17 69.72-1.71Q69.72-2.2 69.62-2.44L69.62-2.44Q69.77-3.52 69.77-4.76 69.77-6.01 69.77-7.08L69.77-7.08Q69.77-7.76 69.72-8.35 69.67-8.94 69.62-9.62L69.62-9.62Q69.57-10.3 69.62-11.06 69.67-11.82 69.67-12.5L69.67-12.5Q69.67-13.92 69.62-15.31 69.57-16.7 69.57-18.12L69.57-18.12Q69.57-18.65 69.65-19.21 69.72-19.78 69.72-20.41L69.72-20.41Q69.72-21.09 69.69-21.75 69.67-22.41 69.67-23.1L69.67-23.1Q69.67-24.61 69.82-26.22L69.82-26.22Q69.72-26.37 69.72-26.54 69.72-26.71 69.62-26.81L69.62-26.81Q69.47-26.76 69.43-26.64 69.38-26.51 69.28-26.37L69.28-26.37Q69.08-26.27 68.96-26.1 68.84-25.93 68.74-25.78L68.74-25.78Q68.35-25.59 68.06-25.37 67.77-25.15 67.38-25L67.38-25Q67.13-25.05 67.01-25.2 66.89-25.34 66.79-25.49L66.79-25.49Q66.4-25.63 66.03-25.88 65.67-26.12 65.28-26.27L65.28-26.27Q65.08-26.66 64.76-26.88 64.45-27.1 64.3-27.44L64.3-27.44Q63.91-27.54 63.54-27.86 63.18-28.17 63.18-28.56L63.18-28.56Q63.18-28.91 63.47-29.2 63.76-29.49 63.76-29.88L63.76-29.88Q64.49-30.91 65.28-31.86 66.06-32.81 66.74-33.79L66.74-33.79Q67.13-34.03 67.42-34.38 67.72-34.72 68.01-35.01L68.01-35.01Q68.21-35.06 68.3-35.18 68.4-35.3 68.64-35.4L68.64-35.4Q69.18-35.35 69.4-35.45 69.62-35.55 69.82-35.64L69.82-35.64Q69.82-35.89 69.87-36.11 69.91-36.33 70.01-36.57L70.01-36.57Q70.74-36.67 70.89-36.38Z" opacity="1" transform="matrix(1,0,0,1,0,0)" fill="#000000" class="undefined-text-1" data-fill-palette-color="secondary" id="text-1"></path></svg></g></svg></g></svg></g></svg></g></svg></g></svg></g></svg></g></svg></g><defs></defs></svg><rect width="395.52" height="247.2" fill="none" stroke="none" visibility="hidden"></rect></g></svg></g></svg>