<?xml version="1.0" encoding="iso-8859-1"?>
<!-- Uploaded to: SVG Repo, www.svgrepo.com, Generator: SVG Repo Mixer Tools -->
<svg height="800px" width="800px" version="1.1" id="Layer_1" xmlns="http://www.w3.org/2000/svg" xmlns:xlink="http://www.w3.org/1999/xlink" 
	 viewBox="0 0 511.999 511.999" xml:space="preserve">
<circle style="fill:#E6E6E6;" cx="255.999" cy="255.999" r="255.999"/>
<g>
	<path style="fill:#406A80;" d="M167.316,148.001l16.964-16.972c3.108-3.104,3.108-8.204,0-11.308
		c-3.104-3.108-8.204-3.108-11.312,0L156,136.684l-16.968-16.964c-3.108-3.108-8.208-3.108-11.312,0
		c-3.108,3.104-3.108,8.204,0,11.308l16.964,16.972l-16.964,16.968c-3.108,3.108-3.108,8.204,0,11.312
		c3.104,3.108,8.204,3.108,11.312,0L156,159.317l16.968,16.964c3.108,3.108,8.208,3.108,11.312,0c3.108-3.108,3.108-8.204,0-11.312
		L167.316,148.001z"/>
	<path style="fill:#406A80;" d="M231.316,392l16.964-16.972c3.108-3.104,3.108-8.204,0-11.308c-3.104-3.108-8.204-3.108-11.312,0
		l-16.968,16.964l-16.968-16.964c-3.108-3.108-8.208-3.108-11.312,0c-3.108,3.104-3.108,8.204,0,11.308L208.683,392l-16.964,16.968
		c-3.108,3.108-3.108,8.204,0,11.312c3.104,3.108,8.204,3.108,11.312,0l16.968-16.964l16.968,16.964
		c3.108,3.108,8.208,3.108,11.312,0c3.108-3.108,3.108-8.204,0-11.312L231.316,392z"/>
	<path style="fill:#406A80;" d="M359.316,248l16.964-16.972c3.108-3.104,3.108-8.204,0-11.308c-3.104-3.108-8.204-3.108-11.312,0
		L348,236.684l-16.968-16.964c-3.108-3.108-8.208-3.108-11.312,0c-3.108,3.104-3.108,8.204,0,11.308L336.684,248l-16.964,16.968
		c-3.108,3.108-3.108,8.204,0,11.312c3.104,3.108,8.204,3.108,11.312,0L348,259.317l16.968,16.964c3.108,3.108,8.208,3.108,11.312,0
		c3.108-3.108,3.108-8.204,0-11.312L359.316,248z"/>
</g>
<g>
	<path style="fill:#CC584C;" d="M118.672,420.004c-3.556,0-6.788-2.384-7.736-5.976c-7.916-30.176-1.112-63.112,18.172-88.112
		C149.972,298.893,182.252,284,219.999,284c22.788,0,47.601,9.8,71.592,19.28c47.36,18.708,92.084,36.376,125.852-11.868
		c14.364-20.524,18.868-41.88,13.396-63.484c-8.412-33.164-39.904-65.516-86.416-88.772c-3.948-1.976-5.555-6.78-3.58-10.736
		c1.972-3.952,6.772-5.568,10.736-3.584c50.68,25.34,85.228,61.48,94.768,99.156c6.672,26.32,1.356,52.088-15.792,76.585
		c-41.008,58.6-96.164,36.808-144.836,17.584C262.08,308.824,239.743,300,220,300c-32.68,0-60.456,12.676-78.22,35.688
		c-16.28,21.1-22.032,48.876-15.369,74.284c1.116,4.268-1.436,8.644-5.716,9.76C120.024,419.916,119.34,420.004,118.672,420.004z"/>
	<path style="fill:#CC584C;" d="M343.992,168c-3.668,0-6.972-2.536-7.8-6.264l-8-36c-0.94-4.232,1.66-8.44,5.872-9.492l32-8
		c4.272-1.084,8.624,1.532,9.704,5.82c1.072,4.284-1.54,8.628-5.82,9.704l-24.44,6.104l6.308,28.396
		c0.96,4.312-1.756,8.584-6.08,9.548C345.152,167.936,344.573,168,343.992,168z"/>
	<path style="fill:#CC584C;" d="M268,132c-22.056,0-40-17.944-40-40S245.944,52,268,52s40,17.944,40,40S290.056,132,268,132z
		 M268,68c-13.236,0-24,10.764-24,24s10.764,24,24,24c13.237,0,24-10.764,24-24S281.236,68,268,68z"/>
</g>
</svg>